<?xml version="1.0" encoding="UTF-8" standalone="no"?>
<!-- Created with Inkscape (http://www.inkscape.org/) -->

<svg
   width="5mm"
   height="5mm"
   viewBox="0 0 5 5"
   version="1.1"
   id="svg1"
   inkscape:version="1.3.2 (1:1.3.2+202311252150+091e20ef0f)"
   sodipodi:docname="favicon-silhouette.svg"
   xmlns:inkscape="http://www.inkscape.org/namespaces/inkscape"
   xmlns:sodipodi="http://sodipodi.sourceforge.net/DTD/sodipodi-0.dtd"
   xmlns="http://www.w3.org/2000/svg"
   xmlns:svg="http://www.w3.org/2000/svg">
  <sodipodi:namedview
     id="namedview1"
     pagecolor="#ffffff"
     bordercolor="#000000"
     borderopacity="0.25"
     inkscape:showpageshadow="2"
     inkscape:pageopacity="0.0"
     inkscape:pagecheckerboard="0"
     inkscape:deskcolor="#d1d1d1"
     inkscape:document-units="mm"
     inkscape:zoom="32"
     inkscape:cx="0.078125"
     inkscape:cy="9.796875"
     inkscape:window-width="2291"
     inkscape:window-height="1289"
     inkscape:window-x="26"
     inkscape:window-y="23"
     inkscape:window-maximized="0"
     inkscape:current-layer="layer1"
     showgrid="false" />
  <defs
     id="defs1" />
  <g
     inkscape:label="Layer 1"
     inkscape:groupmode="layer"
     id="layer1"
     transform="translate(-48.68045,-79.248812)">
    <g
       id="g1"
       transform="matrix(0.86275257,0,0,0.86275257,6.9467798,11.173882)"
       style="fill:#ffffff;fill-opacity:1">
      <path
         style="font-size:3.175px;font-family:'Hobbiton Brushhand';-inkscape-font-specification:'Hobbiton Brushhand, Normal';fill:#ffffff;fill-opacity:1;stroke:none;stroke-width:0.0521406;stroke-dasharray:none;stroke-opacity:1"
         d="m 50.144077,80.584393 c -0.05542,0.05426 -0.106709,0.07023 -0.15808,0.126594 0.0344,-0.137541 0.05008,-0.160375 0.107534,-0.294794 -0.01441,-0.06898 -0.08747,-0.206995 -0.155766,-0.267792 -0.125344,0.04209 -0.28689,0.08109 -0.395905,0.137386 -0.06925,0.08769 -0.357087,0.271302 -0.265085,0.31373 0.123967,0.0083 0.519968,-0.148238 0.304811,0.06703 -0.08989,0.207854 -0.129739,0.431017 -0.152251,0.653898 -0.01054,0.211807 0.03265,0.484013 0.217044,0.626387 0.144177,0.09956 0.662881,0.199719 0.791154,0.03583 0.1084,-0.145605 -0.239351,-0.09461 -0.264825,-0.248243 -0.158808,-0.239487 -0.138284,-0.333403 -0.130853,-0.610299 0.06861,-0.1138 0.0084,-0.129245 0.11256,-0.222041 -0.0047,-0.218524 -0.01287,-0.266825 -0.01034,-0.317686 z m 1.79716,1.734612 c -0.163753,0.329703 -0.07352,0.406794 -0.363665,0.63842 -0.142579,0.133506 -0.420125,0.333704 -0.491936,0.418469 0.275066,-0.09213 0.580316,-0.150321 0.825093,-0.297039 0.156785,-0.126907 -0.09297,0.115716 0.04254,-0.03649 9.65e-4,-0.07687 -0.0067,-0.318666 -0.04449,-0.453679 z m 0.615136,-0.13832 c 0.188351,-0.266578 0.544553,-0.587158 0.630903,-0.902183 0.05784,-0.200722 0.02208,-0.407921 0.0231,-0.605905 0.0018,-0.191524 -0.08328,-0.382642 -0.165557,-0.490023 -0.0053,-0.07527 -0.116209,-0.168401 -0.147243,-0.192861 -0.141524,-0.0072 -0.624251,-0.06451 -0.773847,0.04228 -0.207547,0.05939 -0.419839,0.29199 -0.608074,0.272115 -0.07959,-0.213308 -0.206338,-0.366919 -0.500387,-0.245834 -0.156582,0.03295 -0.173863,0.07478 -0.304698,0.160981 0.04943,0.07822 0.06241,0.23657 0.05286,0.319708 0.174095,-0.07142 0.05713,0.109671 0.160723,0.280379 0.221505,0.253047 0.128819,0.46613 0.163079,0.772591 0.02958,0.07858 -0.05618,0.528028 -0.04513,0.586284 -0.06107,0.274405 -0.17844,0.547067 -0.340922,0.812334 0.132988,-0.04863 0.663471,-0.367886 0.771062,-0.701645 -0.02115,-0.046 0.04901,-0.268947 0.08601,-0.340078 0.04139,-0.265072 0.112216,-0.664653 0.107839,-0.785042 0.07082,-0.180192 -0.11041,-0.365663 0.115383,-0.44906 0.159723,-0.148924 0.369827,-0.267482 0.586537,-0.20449 0.1742,0.08887 0.148061,0.104167 0.203573,0.28052 0.05752,0.136356 -0.02317,0.292211 -2.66e-4,0.407479 l -2e-6,4e-6 c -0.02219,0.09455 0.0017,0.190939 -0.0293,0.288811 -0.0034,0.07037 -1.64e-4,0.186823 -1.64e-4,0.186823 0.0041,0.08304 -7.92e-4,0.207061 0.02718,0.351256 z"
         id="path29"
         sodipodi:nodetypes="ccccccccccccccccccccccccccccccccccccccccsccccccc" />
      <path
         id="path30"
         style="font-size:3.175px;font-family:'Hobbiton Brushhand';-inkscape-font-specification:'Hobbiton Brushhand, Normal';fill:#ffffff;fill-opacity:1;stroke:none;stroke-width:0.0521406;stroke-dasharray:none;stroke-opacity:1"
         d="m 50.188977,81.572173 c 0.310596,-0.283891 0.642776,-0.822711 0.518728,-1.26105 -0.02936,-0.09325 -0.13911,-0.315287 -0.286247,-0.476263 -0.113164,-0.159684 -0.345056,-0.274481 -0.54875,-0.271624 -0.278767,-0.02977 -0.552699,0.05042 -0.826903,0.0803 -0.108108,-0.08468 -0.760103,0.06447 -0.562145,0.10556 0.03599,0.142964 0.09287,0.355442 0.08168,0.483577 -0.02319,0.09775 0.07197,0.388759 0.0083,0.439211 0.0068,0.137873 0.02012,0.272899 4.2e-5,0.397145 0.07154,0.144247 0.0436,0.307838 0.03981,0.46353 0.0577,0.141569 -0.03714,0.292472 -0.0133,0.44276 -0.02889,0.16569 0.02221,0.469376 0.02221,0.469376 0.105239,-0.04678 0.510202,-0.104455 0.616341,-0.149457 0.26247,-0.145139 0.307229,-0.19587 0.45025,-0.291153 -0.07979,-0.05446 -0.141767,-0.107541 -0.182794,-0.179372 -0.08771,0.07668 -0.06246,0.05536 -0.177,0.08942 -0.161995,0.169558 -0.141542,-0.01824 -0.149435,-0.171486 -0.01224,-0.160253 -0.0091,-0.321198 -0.0093,-0.481687 h 2.2e-5 c 5.18e-4,-0.126534 -0.01486,-0.244666 0,-0.370834 v -0.304604 c 0.03852,-0.07201 -0.01707,-0.164431 0,-0.247515 0.02821,-0.139517 -0.111028,-0.328025 0.06951,-0.401437 0.32173,-0.105552 0.71661,0.04152 0.854226,0.360995 0.105744,0.175804 0.09656,0.415569 0.09873,0.628673 0.0261,0.210393 0.0043,0.272725 -0.12821,0.418084 -0.001,0.09631 0.01434,0.172101 0.07952,0.275737 z"
         sodipodi:nodetypes="cccccccccccscccccccccccccccc" />
      <path
         id="path28"
         style="font-size:3.175px;font-family:'Hobbiton Brushhand';-inkscape-font-specification:'Hobbiton Brushhand, Normal';fill:#ffffff;fill-opacity:1;stroke:none;stroke-width:0.0521406;stroke-dasharray:none;stroke-opacity:1"
         d="m 52.501777,80.731719 c -0.05635,0.009 -0.09191,0.03886 -0.148246,0.045 -0.108108,-0.08468 -0.629159,-0.02666 -0.55549,0.105456 0.03599,0.142964 0.127007,0.475426 0.115817,0.603562 0.04877,0.05425 -0.0044,0.252875 0.0057,0.322534 0.0068,0.137874 0.05383,0.270028 0.03377,0.394274 0.07154,0.144247 -0.0019,0.165166 -0.0066,0.394662 0.03434,0.148693 0.08323,0.468304 -0.0176,0.557469 -0.09906,0.144624 -0.11751,0.22924 -0.20478,0.323817 -0.06634,0.0719 -0.312775,0.288287 -0.528962,0.419035 0.298143,-0.0053 1.34443,-0.443968 1.495694,-0.51074 0.274069,-0.195924 0.539037,-0.366413 0.767048,-0.620118 0.310597,-0.283891 0.686495,-0.882159 0.562447,-1.320498 -0.08536,-0.271216 -0.04711,-0.606724 -0.487569,-0.745171 -0.09072,-0.0097 -0.186775,-0.02475 -0.276655,-0.01668 0.0112,0.06142 0.01393,0.336072 0.0152,0.374858 0.08036,0.05302 0.103647,0.116034 0.190271,0.317131 0.04008,0.200483 0.03721,0.474801 0.03939,0.687929 0.01495,0.192429 -0.153739,0.425232 -0.299565,0.600744 -0.175985,0.131398 -0.32724,0.278262 -0.53389,0.387796 -0.161996,0.169557 -0.141542,-0.01824 -0.149435,-0.171487 -0.0125,-0.160241 -0.0087,-0.321259 -0.0096,-0.481686 h 4.3e-5 c 5.18e-4,-0.126535 -0.01486,-0.244667 0,-0.370835 l -0.01972,-0.307696 c -0.0025,-0.116909 0.01637,-0.236765 -0.0046,-0.270661 -0.01308,-0.10785 -0.125079,-0.293654 0.05545,-0.367067 0.03788,-0.156303 0.02492,-0.280989 -0.03812,-0.351636 z"
         sodipodi:nodetypes="ccccccccscccccccccccccccccccc" />
    </g>
  </g>
</svg>
