<?xml version="1.0" encoding="UTF-8" standalone="no"?>
<!-- Created with Inkscape (http://www.inkscape.org/) -->

<svg
   width="5mm"
   height="5mm"
   viewBox="0 0 5 5"
   version="1.1"
   id="svg1"
   inkscape:version="1.3.2 (1:1.3.2+202311252150+091e20ef0f)"
   sodipodi:docname="logo-color.svg"
   xmlns:inkscape="http://www.inkscape.org/namespaces/inkscape"
   xmlns:sodipodi="http://sodipodi.sourceforge.net/DTD/sodipodi-0.dtd"
   xmlns="http://www.w3.org/2000/svg"
   xmlns:svg="http://www.w3.org/2000/svg">
  <sodipodi:namedview
     id="namedview1"
     pagecolor="#ffffff"
     bordercolor="#000000"
     borderopacity="0.25"
     inkscape:showpageshadow="2"
     inkscape:pageopacity="0.0"
     inkscape:pagecheckerboard="0"
     inkscape:deskcolor="#d1d1d1"
     inkscape:document-units="mm"
     inkscape:zoom="22.627417"
     inkscape:cx="5.9441164"
     inkscape:cy="11.799844"
     inkscape:window-width="1452"
     inkscape:window-height="1212"
     inkscape:window-x="26"
     inkscape:window-y="23"
     inkscape:window-maximized="0"
     inkscape:current-layer="layer1" />
  <defs
     id="defs1" />
  <g
     inkscape:label="Layer 1"
     inkscape:groupmode="layer"
     id="layer1"
     transform="translate(-48.68045,-79.248812)">
    <g
       id="g1"
       transform="translate(-0.42958226,0.0964676)">
      <path
         id="path28"
         style="font-size:3.175px;font-family:'Hobbiton Brushhand';-inkscape-font-specification:'Hobbiton Brushhand, Normal';fill:#3732d2;fill-opacity:1;stroke:#000000;stroke-width:0.05;stroke-dasharray:none;stroke-opacity:1"
         d="m 52.75655,80.822773 c -0.05404,0.0086 -0.102303,0.01408 -0.156328,0.01997 -0.103669,-0.0812 -0.317796,-0.03033 -0.247151,0.09636 0.03451,0.137095 0.09172,0.221747 0.08099,0.344622 0.04677,0.05202 -0.0042,0.242494 0.0055,0.309293 0.0065,0.132213 0.05162,0.258942 0.03238,0.378087 0.0686,0.138325 -0.0018,0.158385 -0.0063,0.378459 0.03293,0.142588 0.07981,0.449078 -0.01688,0.534582 -0.09499,0.138687 -0.112685,0.219829 -0.196373,0.310523 -0.06362,0.06895 -0.299934,0.276451 -0.507245,0.401831 0.285903,-0.0051 0.883456,-0.547163 1.02851,-0.611193 0.262817,-0.187881 0.538281,-0.349151 0.756931,-0.59244 0.297845,-0.272236 0.568644,-0.664628 0.449689,-1.084971 -0.08186,-0.260081 -0.29041,-0.544265 -0.588088,-0.540093 -0.087,-0.0093 -0.148428,-0.0075 -0.234618,2.38e-4 0.005,0.03513 0.01085,0.06903 0.01393,0.113891 0.200935,0.04182 0.342084,0.118825 0.425152,0.311666 0.101564,0.168562 0.07203,0.445269 0.07412,0.649647 0.01434,0.184529 -0.147427,0.407774 -0.287266,0.57608 -0.16876,0.126004 -0.313805,0.266838 -0.511971,0.371875 -0.155345,0.162596 -0.135731,-0.01749 -0.1433,-0.164446 -0.01199,-0.153663 -0.0083,-0.30807 -0.0092,-0.461911 h 3.1e-5 c 4.98e-4,-0.12134 -0.01425,-0.234622 0,-0.35561 l -0.01891,-0.295063 c -0.0024,-0.11211 0.0157,-0.227045 -0.0044,-0.25955 -0.01254,-0.103422 -0.09105,-0.282075 0.08207,-0.352474 z"
         sodipodi:nodetypes="ccccccccsccccccccccccccccccc" />
      <path
         style="font-size:3.175px;font-family:'Hobbiton Brushhand';-inkscape-font-specification:'Hobbiton Brushhand, Normal';fill:#d24732;fill-opacity:1;stroke:#080101;stroke-width:0.05;stroke-dasharray:none;stroke-opacity:1"
         d="m 50.585435,80.682578 c -0.05314,0.05203 -0.104179,0.105855 -0.153441,0.159904 0.03299,-0.131895 0.07457,-0.275606 0.129662,-0.404506 0.0052,-0.0059 -0.04639,-0.1402 -0.0571,-0.138617 -0.120198,0.04036 -0.253774,0.130393 -0.358314,0.184385 -0.06641,0.08409 -0.342427,0.260164 -0.254202,0.30085 0.118878,0.008 0.498621,-0.142152 0.292297,0.06428 -0.0862,0.199321 -0.124412,0.413322 -0.146,0.627052 -0.01011,0.203112 0.03131,0.464142 0.208133,0.600671 0.138258,0.09547 0.38163,0.177069 0.504637,0.01991 0.103949,-0.139627 -0.229525,-0.09073 -0.253953,-0.238052 -0.152288,-0.229654 -0.154788,-0.52187 -0.147662,-0.787398 0.06579,-0.109128 0.138792,-0.204029 0.238694,-0.293015 z m 1.896789,1.515706 c -0.15703,0.316167 -0.359647,0.610847 -0.637883,0.832964 -0.136725,0.128025 -0.402876,0.320004 -0.471739,0.401289 0.263773,-0.08835 0.459813,-0.293496 0.69454,-0.43419 0.150349,-0.121697 0.303334,-0.261959 0.433281,-0.407919 9.25e-4,-0.07371 -0.02195,-0.198926 -0.03547,-0.240986 z m 0.279326,0.09661 c 0.180618,-0.255633 0.276887,-0.521627 0.359692,-0.823718 0.05546,-0.192482 0.02117,-0.391174 0.02215,-0.58103 0.0017,-0.183661 -0.07986,-0.366932 -0.15876,-0.469905 -0.0051,-0.07218 -0.111438,-0.161487 -0.141198,-0.184943 -0.135713,-0.0069 -0.353433,-0.0032 -0.496887,0.09921 -0.199026,0.05695 -0.384866,0.348651 -0.565373,0.329592 -0.07632,-0.204551 -0.194075,-0.529091 -0.476052,-0.412977 -0.150154,0.0316 -0.263543,0.09241 -0.389007,0.175076 0.0087,0.05611 0.0069,0.09214 0.0055,0.146028 0.166947,-0.06849 0.323813,-0.0209 0.423148,0.142801 0.212411,0.242658 0.148555,0.61732 0.181408,0.911199 0.02837,0.07535 -0.05387,0.50635 -0.04328,0.562214 -0.05856,0.263139 -0.162878,0.570464 -0.318689,0.824841 0.127528,-0.04663 0.328713,-0.40083 0.431887,-0.720887 -0.02028,-0.04411 0.047,-0.257905 0.08248,-0.326116 0.03969,-0.254189 0.107609,-0.637366 0.103411,-0.752812 0.06791,-0.172794 -0.03291,-0.421111 0.183613,-0.501084 0.153166,-0.14281 0.385714,-0.241587 0.593527,-0.181181 0.167048,0.08522 0.185185,0.253218 0.238418,0.422331 0.05516,0.130757 -0.02222,0.280214 -2.55e-4,0.39075 l -2e-6,3e-6 c -0.02128,0.09067 -0.01749,0.181348 -0.04723,0.275202 -0.0033,0.06748 0.01,0.187661 0.01,0.187661 -0.01196,0.07906 0.0049,0.226927 -0.0015,0.377888 z"
         id="path29"
         sodipodi:nodetypes="cccccccccccccccccccccccccccccccccccccccccsccccc" />
      <path
         id="path30"
         style="font-size:3.175px;font-family:'Hobbiton Brushhand';-inkscape-font-specification:'Hobbiton Brushhand, Normal';fill:#3732d2;fill-opacity:1;stroke:#030303;stroke-width:0.05;stroke-dasharray:none;stroke-opacity:1"
         d="m 50.384008,81.462758 c 0.01782,-0.01768 0.01894,-0.02239 0.03585,-0.0412 0.297845,-0.272236 0.570511,-0.678713 0.451556,-1.099056 -0.02815,-0.08942 -0.130479,-0.200478 -0.128348,-0.260263 -0.108518,-0.153128 -0.266276,-0.268485 -0.461607,-0.265745 -0.267322,-0.02855 -0.530008,0.04835 -0.792955,0.077 -0.103669,-0.0812 -0.436006,0.0549 -0.246175,0.0943 0.03451,0.137095 0.09722,0.28979 0.08649,0.412665 -0.02224,0.09374 0.06102,0.192869 0,0.24125 0.0065,0.132213 0.01929,0.261695 5e-5,0.38084 0.0686,0.138325 0.04181,0.2952 0.03818,0.4445 0.05533,0.135757 -0.03562,0.280465 -0.01275,0.424583 -0.0277,0.158887 -0.01353,0.260331 -0.01353,0.260331 0.100919,-0.04486 0.196365,-0.09324 0.298146,-0.136395 0.251695,-0.13918 0.280905,-0.165156 0.418055,-0.256527 l -0.01355,-0.09132 c -0.08411,0.07353 -0.173097,0.139496 -0.282938,0.172165 -0.155345,0.162596 -0.135731,-0.01749 -0.1433,-0.164446 -0.01174,-0.153674 -0.0087,-0.308011 -0.0089,-0.461911 h 2.5e-5 c 4.98e-4,-0.12134 -0.01425,-0.234622 0,-0.35561 v -0.2921 c 0.03694,-0.06905 -0.01637,-0.157681 0,-0.237353 0.02705,-0.13379 -0.106469,-0.314558 0.06666,-0.384957 0.308521,-0.101218 0.687189,0.03982 0.819155,0.346175 0.101403,0.168586 0.0926,0.398508 0.09468,0.602863 0.02503,0.201755 -0.09503,0.33418 -0.22205,0.473571 z"
         sodipodi:nodetypes="ccccccccccccsccccccccccccccc" />
    </g>
  </g>
</svg>
