<?xml version="1.0" standalone="no"?>
<!DOCTYPE svg PUBLIC "-//W3C//DTD SVG 20010904//EN"
 "http://www.w3.org/TR/2001/REC-SVG-20010904/DTD/svg10.dtd">
<svg version="1.0" xmlns="http://www.w3.org/2000/svg"
 width="704.000000pt" height="704.000000pt" viewBox="0 0 704.000000 704.000000"
 preserveAspectRatio="xMidYMid meet">
<metadata>
Created by potrace 1.14, written by Peter Selinger 2001-2017
</metadata>
<g transform="translate(0.000000,704.000000) scale(0.100000,-0.100000)"
fill="#000000" stroke="none">
<path d="M1628 6145 c-2 -1 -37 -5 -78 -9 -41 -3 -86 -8 -100 -10 -14 -3 -45
-7 -70 -10 -25 -3 -56 -8 -70 -11 -14 -3 -45 -8 -70 -11 -25 -3 -54 -8 -65
-11 -11 -2 -36 -6 -55 -9 -19 -2 -46 -6 -60 -9 -14 -2 -47 -7 -75 -11 -27 -3
-58 -8 -67 -9 -10 -2 -20 0 -23 5 -18 29 -231 30 -390 0 -27 -5 -63 -11 -80
-14 -53 -8 -205 -56 -233 -73 -15 -9 -28 -18 -30 -19 -1 -1 -5 -12 -7 -25 -4
-18 3 -31 24 -49 17 -14 32 -38 35 -55 3 -16 10 -48 16 -70 46 -180 61 -288
65 -471 2 -130 9 -209 21 -244 3 -8 8 -57 11 -107 4 -72 2 -98 -9 -115 -11
-16 -14 -41 -11 -83 5 -72 8 -308 4 -385 -2 -37 4 -74 18 -113 30 -81 37 -186
26 -407 -2 -41 2 -97 10 -125 7 -27 11 -59 10 -70 -2 -11 -6 -51 -10 -88 -4
-37 -11 -82 -16 -100 -18 -58 -28 -390 -16 -542 7 -89 9 -103 23 -200 4 -27 7
-58 7 -67 -1 -22 9 -22 47 -3 17 9 31 15 32 14 2 -1 21 4 43 10 22 6 49 12 60
14 11 2 38 9 60 15 22 6 56 13 75 16 19 2 46 7 60 11 14 3 57 12 95 20 39 8
79 16 90 19 11 2 39 9 63 14 23 5 42 8 42 6 0 -3 14 2 30 11 17 9 30 13 30 10
0 -11 77 27 168 83 52 31 103 62 115 69 12 7 92 62 177 122 95 68 161 108 170
105 8 -3 20 -7 25 -8 6 -2 17 -6 25 -9 12 -5 87 -27 110 -32 18 -4 125 -25
160 -31 65 -12 290 -12 350 -1 153 30 258 124 229 206 -13 38 -52 62 -154 96
-117 39 -172 74 -179 115 -1 3 -14 27 -29 53 l-29 49 24 26 c12 14 61 65 108
113 47 47 99 103 115 124 17 20 35 42 41 49 67 72 210 296 280 438 40 83 118
291 127 343 2 11 9 55 17 98 7 42 16 77 21 77 12 0 42 -48 90 -145 24 -49 47
-91 52 -93 4 -2 7 -9 7 -15 1 -7 23 -41 50 -77 116 -152 142 -248 145 -535 3
-235 7 -328 13 -339 7 -12 9 -146 2 -146 -3 0 -5 -15 -5 -32 -1 -32 -13 -151
-20 -186 -1 -9 -6 -46 -10 -82 -4 -36 -9 -78 -11 -95 -2 -16 -6 -61 -9 -100
-3 -38 -13 -97 -21 -130 -24 -93 -85 -279 -96 -292 -6 -7 -8 -13 -5 -13 6 0
-16 -53 -73 -176 -21 -45 -41 -91 -45 -103 -3 -11 -10 -21 -14 -21 -4 0 -8 -6
-8 -12 0 -7 -19 -46 -42 -87 -22 -41 -41 -78 -41 -82 0 -5 -4 -9 -10 -9 -5 0
-10 -5 -10 -10 0 -6 -18 -39 -40 -74 -22 -35 -40 -66 -40 -69 0 -11 92 26 180
71 77 40 322 197 353 226 6 6 32 27 57 46 24 19 52 42 61 50 119 112 164 158
219 226 37 45 81 115 110 175 17 35 35 71 40 80 4 9 5 21 1 28 -14 22 -3 81
41 226 17 55 34 105 38 110 12 16 28 76 35 125 3 25 8 58 11 73 6 31 11 58 19
122 3 22 7 51 10 65 6 28 13 73 34 210 5 36 13 83 16 105 10 60 12 82 19 180
4 50 9 101 12 115 16 83 21 127 18 149 -1 15 -6 49 -9 76 -15 112 -14 189 2
215 18 27 45 49 79 65 22 10 91 64 126 98 10 9 22 17 27 17 5 0 11 4 13 9 6
16 163 100 226 121 52 17 138 33 177 33 151 -2 294 -89 320 -193 5 -21 1 -27
-22 -37 -103 -44 -149 -48 -243 -20 -43 13 -86 16 -195 13 -77 -2 -153 -7
-170 -10 -65 -14 -166 -47 -198 -66 -45 -27 -72 -78 -62 -116 5 -16 9 -33 10
-39 2 -5 13 -46 24 -90 12 -44 24 -89 26 -100 2 -11 6 -29 9 -40 7 -30 47
-216 52 -245 2 -14 6 -35 9 -47 3 -12 8 -57 11 -100 3 -43 10 -91 16 -106 7
-18 8 -67 4 -140 -10 -156 -11 -254 -3 -307 4 -25 10 -63 14 -85 15 -100 26
-200 23 -230 0 -11 -2 -31 -3 -45 -2 -14 5 -41 14 -60 18 -40 24 -107 11 -124
-8 -9 -74 -158 -111 -251 -27 -67 -87 -186 -111 -220 -52 -74 -128 -147 -314
-305 -16 -14 -37 -32 -46 -40 -8 -8 -60 -51 -115 -95 -208 -167 -332 -274
-377 -328 -27 -30 -48 -57 -48 -60 0 -2 33 7 73 20 39 13 79 26 87 28 8 2 71
21 140 41 69 20 132 38 140 39 8 2 15 4 15 5 0 1 8 3 17 5 28 5 155 44 283 86
66 22 125 41 131 42 27 7 170 72 176 82 5 7 8 7 8 0 0 -6 -15 -33 -32 -61 -37
-57 -41 -64 -88 -149 -72 -130 -150 -222 -291 -340 -79 -66 -149 -123 -173
-140 -16 -11 -33 -25 -40 -30 -26 -25 -186 -134 -253 -174 -40 -24 -73 -47
-73 -51 0 -8 64 -5 79 4 6 4 11 3 11 -3 0 -6 6 -9 13 -6 6 2 32 6 57 9 74 9
111 16 190 37 41 11 82 22 90 24 8 2 15 4 15 5 0 1 7 3 16 5 38 7 225 69 237
78 6 5 12 7 12 3 0 -5 97 27 165 54 43 17 191 71 200 74 23 5 161 60 169 68 6
4 20 8 32 8 13 0 26 5 29 10 4 6 11 8 16 5 5 -4 9 -1 9 4 0 6 6 11 14 11 17 0
399 156 504 206 56 26 409 268 512 351 199 159 277 229 441 394 107 109 229
242 270 296 41 54 77 100 80 103 3 3 8 10 10 15 2 6 29 48 60 95 65 100 134
227 176 325 33 75 46 107 48 115 0 3 10 34 22 70 19 58 35 121 34 135 0 2 4
19 9 36 33 113 31 311 -5 439 -8 30 -26 107 -40 170 -55 245 -102 391 -143
445 -9 13 -24 33 -32 46 -23 37 -118 128 -164 157 -71 45 -184 96 -236 107
-39 8 -184 18 -262 19 -49 1 -88 3 -89 6 0 3 -2 12 -3 20 -2 8 -6 40 -10 70
-17 149 -78 317 -159 438 -15 23 -33 57 -39 75 -17 50 -61 108 -128 170 -53
50 -66 57 -103 58 -23 0 -58 2 -77 4 -180 17 -408 22 -545 11 -84 -6 -108 -9
-160 -20 -29 -6 -106 -35 -119 -44 -6 -4 -38 -19 -71 -32 -62 -24 -182 -91
-295 -165 -120 -77 -221 -122 -300 -132 -34 -4 -35 -3 -64 59 -106 228 -262
318 -471 272 -83 -19 -94 -22 -105 -29 -6 -4 -22 -8 -35 -11 -61 -11 -217 -69
-294 -110 -46 -24 -87 -44 -91 -44 -5 0 -23 26 -40 58 -18 31 -42 74 -53 95
-11 20 -24 37 -29 37 -4 0 -8 5 -8 11 0 6 -11 25 -25 43 -14 18 -25 35 -25 38
0 5 -13 22 -75 94 -11 13 -38 45 -60 71 -21 27 -61 67 -88 88 -27 22 -54 45
-61 50 -34 28 -205 114 -227 115 -9 0 -19 3 -23 7 -3 4 -12 8 -19 9 -7 1 -31
7 -55 13 -23 7 -77 14 -120 17 -84 6 -320 13 -324 9z m-63 -495 c17 -6 31 -11
33 -10 8 4 74 -16 133 -41 71 -30 169 -92 216 -135 22 -21 25 -27 13 -34 -8
-6 -20 -10 -27 -10 -7 0 -32 -6 -55 -14 -24 -8 -77 -24 -118 -36 -94 -27 -192
-61 -205 -70 -5 -4 -21 -10 -35 -13 -14 -4 -51 -30 -82 -59 -30 -29 -82 -75
-114 -103 -191 -162 -233 -229 -174 -277 25 -20 83 -17 220 12 180 38 236 38
197 -2 -43 -44 -90 -132 -102 -188 -2 -8 -9 -28 -15 -45 -6 -16 -14 -38 -16
-47 -5 -23 -10 -39 -29 -112 -9 -32 -18 -70 -20 -85 -2 -14 -9 -51 -15 -81 -6
-30 -13 -66 -14 -80 -6 -50 -18 -146 -22 -170 -6 -38 -6 -230 1 -275 19 -127
42 -217 76 -292 10 -24 19 -46 19 -51 0 -23 -168 -121 -182 -107 -3 3 -20 -9
-39 -26 -48 -44 -77 -62 -88 -55 -22 14 -30 149 -38 626 -8 556 -5 1018 7
1025 9 6 5 111 -8 203 -5 35 -6 65 -3 67 12 7 -1 204 -14 226 -2 3 -6 33 -10
67 -9 101 21 150 108 176 9 3 18 6 20 7 56 26 322 33 382 9z m643 -615 c-3 -3
0 -30 7 -60 11 -48 11 -55 -4 -67 -28 -24 -109 -78 -115 -78 -6 0 80 176 97
198 5 6 12 12 15 12 3 0 3 -2 0 -5z m45 -662 c-3 -98 -15 -149 -49 -214 -20
-37 -46 -77 -59 -89 l-24 -23 3 97 c3 67 8 102 19 114 8 9 23 35 32 57 20 44
62 105 73 105 4 0 6 -21 5 -47z m3723 -121 c51 -45 93 -114 154 -252 21 -47
41 -104 44 -125 22 -142 26 -211 32 -550 5 -349 5 -352 -68 -505 -40 -85 -152
-262 -169 -268 -5 -2 -9 -10 -9 -17 0 -8 -6 -18 -13 -22 -6 -4 -27 -28 -46
-53 -19 -25 -95 -92 -168 -150 -74 -58 -145 -114 -158 -125 -25 -21 -55 -45
-94 -73 -12 -9 -43 -32 -67 -50 -24 -18 -44 -30 -44 -26 0 4 -10 -2 -22 -13
-13 -12 -43 -32 -68 -44 -25 -13 -58 -36 -75 -52 -37 -35 -82 -60 -89 -49 -16
27 -26 247 -31 681 l-3 344 40 56 c34 47 156 196 193 237 5 7 17 20 26 30 8
11 64 75 123 144 120 138 281 350 316 414 84 155 119 245 136 351 3 22 8 47 9
55 2 8 4 32 4 53 1 20 4 37 9 37 4 0 21 -12 38 -28z m-882 -75 c-2 -32 -12
-118 -19 -157 -2 -8 -6 -42 -10 -75 -3 -33 -8 -61 -10 -63 -7 -7 -26 99 -29
163 -3 72 10 123 41 157 21 24 29 17 27 -25z"/>
</g>
</svg>
